<?xml version="1.0" ?><svg width="64px" height="64px" viewBox="0 0 64 64" data-name="Layer 1" id="Layer_1" xmlns="http://www.w3.org/2000/svg"><defs><style>.cls-1{fill:#ffb300;}.cls-2{fill:#0074ff;}</style></defs><title/><path class="cls-1" d="M26.68,27.81h-15a2,2,0,0,1-2-2V7.37a2,2,0,0,1,2-2h15a2,2,0,0,1,2,2V17.2a2,2,0,0,1-4,0V9.37h-11V23.81h11v-.18a2,2,0,0,1,4,0v2.18A2,2,0,0,1,26.68,27.81Z"/><path class="cls-2" d="M52.31,27.81H34.06a2,2,0,0,1-2-2V7.37a2,2,0,0,1,2-2H52.31a2,2,0,0,1,2,2V25.81A2,2,0,0,1,52.31,27.81Zm-16.25-4H50.31V9.37H36.06Z"/><path class="cls-2" d="M33.59,58.63H11.69a2,2,0,0,1-2-2V33a2,2,0,0,1,2-2H15a2,2,0,1,1,0,4H13.69V54.63h17.9V35H21.15a2,2,0,0,1,0-4H33.59a2,2,0,0,1,2,2V56.63A2,2,0,0,1,33.59,58.63Z"/><path class="cls-2" d="M52.31,58.63H40.4a2,2,0,0,1-2-2V33a2,2,0,0,1,2-2H52.31a2,2,0,0,1,2,2V47.91a2,2,0,0,1-4,0V35H42.4V54.63h7.93a2,2,0,0,1,4,.3v1.7A2,2,0,0,1,52.31,58.63Z"/></svg>