<?xml version="1.0" encoding="iso-8859-1"?>
<!-- Generator: Adobe Illustrator 19.0.0, SVG Export Plug-In . SVG Version: 6.00 Build 0)  -->
<svg version="1.1" id="Layer_1" xmlns="http://www.w3.org/2000/svg" xmlns:xlink="http://www.w3.org/1999/xlink" x="0px" y="0px"
	 viewBox="0 0 511.999 511.999" style="enable-background:new 0 0 511.999 511.999;" xml:space="preserve">
<g>
	<path style="fill:#FCE600;" d="M493.94,454.973L334.598,295.632c-10.912,14.896-24.062,28.046-38.958,38.958l159.342,159.341
		c5.379,5.379,12.429,8.068,19.479,8.068c7.051,0,14.1-2.689,19.479-8.068C504.697,483.173,504.697,465.732,493.94,454.973z"/>
	<circle style="fill:#50A5DC;" cx="189.618" cy="189.61" r="179.61"/>
	<path d="M501.011,447.902L347.54,294.431c20.009-30.046,31.689-66.093,31.689-104.821C379.229,85.059,294.17,0,189.618,0
		S0.008,85.059,0.008,189.61s85.059,189.61,189.61,189.61c38.728,0,74.774-11.68,104.821-31.689L447.91,501.002
		c7.092,7.092,16.521,10.997,26.551,10.997s19.458-3.905,26.55-10.998C515.65,486.363,515.65,462.542,501.011,447.902z
		 M20.008,189.61C20.008,96.087,96.095,20,189.618,20s169.61,76.087,169.61,169.61s-76.087,169.61-169.61,169.61
		S20.008,283.134,20.008,189.61z M486.868,486.86c-3.314,3.314-7.721,5.14-12.407,5.14c-4.688,0-9.094-1.825-12.408-5.14
		L310.648,335.455c9.013-7.492,17.323-15.802,24.815-24.815l151.405,151.404C493.709,468.887,493.709,480.019,486.868,486.86z"/>
	<g>
		<path d="M55.186,199.61c-5.522,0-10-4.478-10-10c0-79.641,64.792-144.433,144.433-144.433c5.522,0,10,4.478,10,10s-4.478,10-10,10
			c-68.612,0-124.433,55.82-124.433,124.433C65.186,195.133,60.708,199.61,55.186,199.61z"/>
	</g>
	<g>
		<path d="M311.011,141.767c-3.733,0-7.315-2.1-9.031-5.693c-12.257-25.674-33.146-46.563-58.818-58.821
			c-4.984-2.38-7.095-8.35-4.716-13.333c2.379-4.984,8.349-7.097,13.333-4.716c29.789,14.224,54.027,38.463,68.25,68.253
			c2.379,4.984,0.268,10.953-4.716,13.333C313.922,141.453,312.455,141.767,311.011,141.767z"/>
	</g>
</g>
<g>
</g>
<g>
</g>
<g>
</g>
<g>
</g>
<g>
</g>
<g>
</g>
<g>
</g>
<g>
</g>
<g>
</g>
<g>
</g>
<g>
</g>
<g>
</g>
<g>
</g>
<g>
</g>
<g>
</g>
</svg>
