<?xml version="1.0" encoding="iso-8859-1"?>
<!-- Generator: Adobe Illustrator 19.0.0, SVG Export Plug-In . SVG Version: 6.00 Build 0)  -->
<svg version="1.1" id="Layer_1" xmlns="http://www.w3.org/2000/svg" xmlns:xlink="http://www.w3.org/1999/xlink" x="0px" y="0px"
	 viewBox="0 0 511.965 511.965" style="enable-background:new 0 0 511.965 511.965;" xml:space="preserve">
<g>
	<polyline style="fill:#FCE600;" points="43.091,490.355 10.001,501.963 67.701,337.489 174.476,444.264 101.294,469.937 
		85.551,475.46 	"/>
	<path style="fill:#FCE600;" d="M482.035,136.704c26.621-26.621,26.621-69.782,0-96.403L471.664,29.93
		c-26.621-26.621-69.782-26.621-96.403,0l-15.844,15.844l106.774,106.774L482.035,136.704z"/>
	
		<rect x="60.866" y="169.438" transform="matrix(-0.7071 0.7071 -0.7071 -0.7071 629.0347 229.3222)" style="fill:#50A5DC;" width="412.315" height="151.001"/>
	<g>
		<path d="M489.107,33.23l-10.371-10.372c-30.479-30.476-80.067-30.479-110.546,0l-15.845,15.844L60.791,330.256
			c-0.097,0.097-0.181,0.202-0.273,0.303c-0.984,1.02-1.769,2.24-2.253,3.62l-57.7,164.475c-1.273,3.627-0.353,7.664,2.365,10.382
			c1.908,1.907,4.464,2.929,7.073,2.929c1.108,0,2.227-0.185,3.309-0.564l33.089-11.61c5.211-1.828,7.954-7.535,6.125-12.747
			c-1.828-5.211-7.534-7.954-12.747-6.125l-13.455,4.72l45.548-129.836l84.288,84.288l-73.921,25.933
			c-5.211,1.828-7.954,7.535-6.125,12.747s7.535,7.957,12.747,6.125l88.925-31.196c1.376-0.483,2.593-1.264,3.611-2.245
			c0.103-0.095,0.212-0.182,0.311-0.282l291.548-291.549c0.002-0.002,0.003-0.003,0.005-0.005l15.845-15.844
			C519.584,113.298,519.584,63.707,489.107,33.23z M359.416,59.916l92.633,92.633L174.638,429.96l-92.633-92.633L359.416,59.916z
			 M474.964,129.633l-8.773,8.773L419.875,92.09l-46.316-46.316L382.332,37c22.679-22.68,59.582-22.68,82.261,0l10.371,10.372
			C497.644,70.051,497.644,106.954,474.964,129.633z"/>
		<path d="M315.68,159.959c-3.906-3.905-10.236-3.904-14.143,0L133.297,328.2c-3.905,3.905-3.905,10.237,0,14.143
			c1.953,1.953,4.512,2.929,7.071,2.929s5.119-0.976,7.071-2.929l168.24-168.241C319.585,170.197,319.585,163.865,315.68,159.959z"
			/>
		<path d="M342.066,143.574c2.559,0,5.118-0.977,7.071-2.929l16.251-16.25c3.905-3.905,3.905-10.237,0-14.142
			c-3.904-3.905-10.234-3.905-14.143,0l-16.251,16.25c-3.905,3.905-3.905,10.237,0,14.142
			C336.948,142.598,339.506,143.574,342.066,143.574z"/>
	</g>
</g>
<g>
</g>
<g>
</g>
<g>
</g>
<g>
</g>
<g>
</g>
<g>
</g>
<g>
</g>
<g>
</g>
<g>
</g>
<g>
</g>
<g>
</g>
<g>
</g>
<g>
</g>
<g>
</g>
<g>
</g>
</svg>
