<?xml version="1.0" encoding="iso-8859-1"?>
<!-- Generator: Adobe Illustrator 19.0.0, SVG Export Plug-In . SVG Version: 6.00 Build 0)  -->
<svg version="1.1" id="Layer_1" xmlns="http://www.w3.org/2000/svg" xmlns:xlink="http://www.w3.org/1999/xlink" x="0px" y="0px"
	 viewBox="0 0 512.063 512.063" style="enable-background:new 0 0 512.063 512.063;" xml:space="preserve">
<g>
	<polygon style="fill:#50A5DC;" points="289.783,270.222 42.415,270.222 10,454.058 257.368,454.058 	"/>
	<polygon style="fill:#50A5DC;" points="501.993,57.999 289.797,270.222 257.355,454.058 469.578,241.835 	"/>
	<polygon style="fill:#50A5DC;" points="502,58.005 254.632,58.005 42.428,270.222 289.797,270.222 	"/>
	<g>
		<path d="M511.983,58.315c0.182-5.642-4.553-10.402-10.152-10.309H254.632c-2.652,0-5.196,1.054-7.071,2.929L35.516,262.992
			c-1.5,1.431-2.568,3.326-2.949,5.494L0.152,452.322c-0.514,2.911,0.287,5.9,2.188,8.164c1.899,2.265,4.704,3.572,7.66,3.572
			h247.344c2.704,0,5.348-1.12,7.229-3.075L476.65,248.906c1.451-1.451,2.421-3.314,2.776-5.335l32.365-183.554
			C511.907,59.458,511.964,58.885,511.983,58.315C511.994,57.943,511.978,58.453,511.983,58.315
			C512.164,52.673,511.978,58.453,511.983,58.315z M258.774,68.005h219.072L287.38,258.495l-1.727,1.727H66.569L258.774,68.005z
			 M50.806,280.222h227.06l-14.993,85.032l-13.906,78.804H21.918L50.806,280.222z M460.277,236.994L272.725,424.546l9.297-52.724
			l17.074-96.758L486.634,87.515L460.277,236.994z"/>
		<path d="M303.627,186.112c-3.906-3.905-10.238-3.905-14.143,0l-31.07,31.072c-3.905,3.905-3.905,10.237,0,14.142
			c1.953,1.953,4.512,2.929,7.071,2.929s5.119-0.977,7.071-2.929l31.07-31.072C307.532,196.349,307.532,190.018,303.627,186.112z"/>
		<path d="M326.304,173.434c2.56,0,5.119-0.977,7.071-2.929l60.818-60.823c3.905-3.905,3.905-10.237,0-14.142
			c-3.906-3.905-10.238-3.905-14.143,0l-60.818,60.823c-3.905,3.905-3.905,10.237,0,14.142
			C321.185,172.458,323.744,173.434,326.304,173.434z"/>
	</g>
</g>
<g>
</g>
<g>
</g>
<g>
</g>
<g>
</g>
<g>
</g>
<g>
</g>
<g>
</g>
<g>
</g>
<g>
</g>
<g>
</g>
<g>
</g>
<g>
</g>
<g>
</g>
<g>
</g>
<g>
</g>
</svg>
