<?xml version="1.0" encoding="iso-8859-1"?>
<!-- Generator: Adobe Illustrator 19.0.0, SVG Export Plug-In . SVG Version: 6.00 Build 0)  -->
<svg version="1.1" id="Layer_1" xmlns="http://www.w3.org/2000/svg" xmlns:xlink="http://www.w3.org/1999/xlink" x="0px" y="0px"
	 viewBox="0 0 502 502" style="enable-background:new 0 0 502 502;" xml:space="preserve">
<g>
	<polygon style="fill:#FCE600;" points="11.734,118.176 11.734,492 74.44,492 210.501,118.176 	"/>
	<polygon style="fill:#50A5DC;" points="291.499,118.176 210.501,118.176 74.44,492 291.499,492 354.205,492 490.266,118.176 	"/>
	<path d="M354.205,502c4.204,0,7.959-2.629,9.396-6.58l136.061-373.824c1.116-3.065,0.666-6.483-1.205-9.156
		c-1.871-2.672-4.929-4.264-8.191-4.264H11.734c-5.522,0-10,4.477-10,10V492c0,5.523,4.478,10,10,10H354.205z M21.734,128.176
		H196.22L67.439,482H21.734V128.176z M475.984,128.176L347.203,482h-45.704h-20H88.722l128.781-353.824H475.984z"/>
	<path d="M197.775,294.485c-5.188-1.888-10.928,0.787-12.816,5.977l-50.474,138.676c-1.89,5.19,0.786,10.928,5.977,12.817
		c1.129,0.411,2.283,0.606,3.419,0.606c4.085,0,7.92-2.522,9.397-6.583l50.474-138.676
		C205.641,302.113,202.965,296.375,197.775,294.485z"/>
	<path d="M245.176,164.251c-5.188-1.889-10.929,0.787-12.816,5.977l-21.944,60.293c-1.89,5.189,0.786,10.928,5.977,12.817
		c1.129,0.411,2.283,0.606,3.419,0.606c4.085,0,7.92-2.522,9.397-6.583l21.944-60.292
		C253.042,171.878,250.366,166.14,245.176,164.251z"/>
	<g>
		<path d="M161.21,29.105h-36.714c-5.522,0-10,4.477-10,10s4.478,10,10,10h36.714c5.522,0,10-4.477,10-10
			S166.733,29.105,161.21,29.105z"/>
		<path d="M370.277,26.586L327.628,1.959c-9.637-5.565-21.685,1.39-21.685,12.519v14.627h-77.982c-5.522,0-10,4.477-10,10
			s4.478,10,10,10h77.982v14.627c0,11.129,12.048,18.084,21.685,12.519l42.649-24.627C379.913,46.059,379.913,32.15,370.277,26.586z
			"/>
	</g>
</g>
<g>
</g>
<g>
</g>
<g>
</g>
<g>
</g>
<g>
</g>
<g>
</g>
<g>
</g>
<g>
</g>
<g>
</g>
<g>
</g>
<g>
</g>
<g>
</g>
<g>
</g>
<g>
</g>
<g>
</g>
</svg>
